Coordinates
version=1
nRows=9
nColumns=24
inDegrees=yes

Units are S.I. units (second, meters, Newtons, ...)
Angles are in degrees.

endheader
time	pelvis_tilt	pelvis_list	pelvis_rotation	pelvis_tx	pelvis_ty	pelvis_tz	hip_flexion_r	hip_adduction_r	hip_rotation_r	knee_angle_r	ankle_angle_r	subtalar_angle_r	mtp_angle_r	hip_flexion_l	hip_adduction_l	hip_rotation_l	knee_angle_l	ankle_angle_l	subtalar_angle_l	mtp_angle_l	lumbar_extension	lumbar_bending	lumbar_rotation
      0.50800000	     -3.48158057	      2.19987821	      4.60234015	     -0.75320471	      1.01453028	      0.29351095	     25.66699973	     -1.43013731	     -7.89154051	      1.34331076	      2.94419120	     -0.11233942	      6.87640620	     -8.63304703	      6.45950902	      7.95002434	     -6.65081407	     12.90022187	     -8.65093291	     -5.27447200	     -5.63916212	     -4.78409307	     -4.76368144
      0.51216667	     -3.50854006	      2.09738944	      4.69328219	     -0.74756819	      1.01382620	      0.29357677	     25.65254133	     -1.26131589	     -7.66950530	      1.14034523	      2.92598345	     -0.36872989	      6.90374277	     -8.68884994	      6.33441656	      7.93619970	     -7.17534081	     13.20144968	     -8.48885096	     -5.27337590	     -5.58244138	     -4.68096770	     -4.87558054
      0.51633333	     -3.53216705	      1.98860312	      4.75288634	     -0.74191342	      1.01312777	      0.29366172	     25.66827285	     -1.07937585	     -7.46179844	      0.81648805	      2.86672761	     -0.65305692	      6.97203404	     -8.72087127	      6.20818210	      7.80977301	     -7.74869418	     13.49626947	     -8.27460566	     -5.27172153	     -5.51261533	     -4.56091575	     -4.86906569
      0.52050000	     -3.51362825	      1.85844110	      4.81898090	     -0.73622301	      1.01254546	      0.29372178	     25.64848314	     -0.88320193	     -7.33133501	      0.41069728	      2.87394193	     -0.78544256	      6.99262904	     -8.80882512	      6.06564248	      7.84497009	     -8.29767424	     13.66102327	     -8.34635294	     -5.26740710	     -5.51013744	     -4.42053069	     -4.85754366
      0.52466667	     -3.53611965	      1.73389144	      4.90160006	     -0.73051824	      1.01192725	      0.29378263	     25.64006174	     -0.69339298	     -7.03403555	      0.03548524	      2.63444024	     -1.33680190	      7.11948204	     -8.77805896	      5.92116718	      7.69390955	     -9.00598066	     13.99262323	     -8.00136219	     -5.25196968	     -5.41726959	     -4.27633971	     -4.83133865
      0.52883333	     -3.50195373	      1.59541609	      4.97123364	     -0.72477839	      1.01142001	      0.29384448	     25.58382941	     -0.48619438	     -6.79071849	     -0.40556274	      2.43826134	     -1.77290219	      7.28421932	     -8.81483619	      5.76417237	      7.60230365	     -9.69655694	     14.22995114	     -7.83163221	     -5.22832470	     -5.41160594	     -4.11039803	     -4.80188947
      0.53300000	     -3.48094532	      1.45419783	      5.04762974	     -0.71902305	      1.01093018	      0.29389680	     25.54455321	     -0.28198967	     -6.54917173	     -0.88239213	      2.18072487	     -2.25960474	      7.46953808	     -8.81010815	      5.60967119	      7.53587766	    -10.44288313	     14.42571075	     -7.71358343	     -5.19418133	     -5.38181092	     -3.94620812	     -4.78099981
      0.53716667	     -3.45525894	      1.31458699	      5.12560468	     -0.71324555	      1.01047750	      0.29395165	     25.49748700	     -0.08015779	     -6.29159208	     -1.37580081	      1.86018531	     -2.80979454	      7.67346874	     -8.78870140	      5.45739586	      7.46998298	    -11.23457102	     14.59476767	     -7.59678233	     -5.14704044	     -5.35492373	     -3.78095591	     -4.75852998
      0.54133333	     -3.40111072	      1.16103337	      5.20545071	     -0.70743311	      1.01011217	      0.29400322	     25.41005127	      0.13667023	     -6.02975012	     -1.86566268	      1.47194798	     -3.40551357	      7.89709221	     -8.77422139	      5.28778199	      7.39542749	    -12.07079113	     14.73443322	     -7.47636369	     -5.08156548	     -5.35892606	     -3.59766789	     -4.73483012
